<svg version="1.1" id="Layer_1" xmlns="http://www.w3.org/2000/svg" xmlns:xlink="http://www.w3.org/1999/xlink" x="0px" y="0px"
	 width="100%" viewBox="0 0 922 922" enable-background="new 0 0 922 922" xml:space="preserve">
<path fill="none" opacity="1.000000" stroke="#000000" stroke-linecap="round" stroke-linejoin="round" stroke-width="12.000000"
	d="
M237.000000,306.500000 
	C231.833328,306.500000 226.665741,306.437927 221.500229,306.515350 
	C214.702377,306.617218 213.952972,308.116089 213.960510,314.000061 
	C214.028122,366.833313 214.000000,419.666656 214.000000,472.500000 
	C214.000000,494.666656 213.637772,516.840515 214.079651,538.998413 
	C214.864059,578.333618 214.264206,617.666931 214.437271,657.000305 
	C214.448029,659.446533 215.255127,661.654053 215.611420,664.210876 
	C221.927734,665.742371 228.500717,664.914978 234.998322,664.844910 
	C236.587021,664.827759 238.343521,664.535034 240.000015,664.533936 
	C300.666656,664.493530 361.333374,664.521790 421.999939,664.452209 
	C426.149536,664.447449 429.460754,665.484558 432.551361,668.446411 
	C446.485382,681.799744 468.023865,682.213928 482.411133,669.400208 
	C486.514282,665.745850 490.571869,664.377930 496.000275,664.391663 
	C561.999878,664.558655 628.000000,664.476929 694.000000,664.531311 
	C701.633057,664.537598 702.598083,663.634277 702.520935,655.999817 
	C701.367371,541.834839 702.290222,427.666504 702.031372,313.499939 
	C702.016907,307.125305 701.779175,305.498047 694.000183,305.535706 
	C689.334351,305.558319 684.637146,305.006805 680.000000,306.000000 
"/>
<path fill="none" opacity="1.000000" stroke="#000000" stroke-linecap="round" stroke-linejoin="round" stroke-width="12.000000"
	d="
M676.749939,280.500000 
	C676.999939,286.000000 677.379517,291.498322 677.450317,297.000641 
	C677.491333,300.196777 679.108643,303.248108 679.108643,306.000000 
	C679.108643,308.751892 677.469727,311.800293 677.470825,315.000000 
	C677.506226,418.666656 677.485046,522.333313 677.530701,626.000000 
	C677.534058,633.632874 676.633240,634.548157 668.999939,634.532349 
	C633.666748,634.459167 598.328979,634.836121 563.001526,634.382629 
	C539.165527,634.076721 515.333496,634.130371 491.499847,634.039062 
	C488.598785,634.027954 485.701141,633.659912 483.578186,631.905396 
	C480.875153,629.671387 478.414490,630.285583 475.482666,630.919861 
	C471.067017,631.875061 466.551086,632.712769 462.000000,631.500000 
"/>
<path fill="none" opacity="1.000000" stroke="#000000" stroke-linecap="round" stroke-linejoin="round" stroke-width="12.000000"
	d="
M658.750000,598.000000 
	C657.274475,594.956726 659.083191,592.019287 659.071411,588.999695 
	C658.953735,558.833496 659.434937,528.658691 658.879333,498.502228 
	C658.308044,467.497314 658.266663,436.492676 658.653015,405.501892 
	C659.020752,375.998199 658.777588,346.499725 658.967224,316.999786 
	C659.017517,309.167847 658.669250,301.333282 658.498596,293.500031 
	C658.439331,290.782990 658.321167,288.023041 659.555176,285.527283 
	C659.990967,284.645996 660.503235,283.886200 659.981873,283.010773 
	C658.010742,279.700562 658.619690,276.059479 658.488220,272.500427 
	C658.306885,267.593719 657.321472,266.396881 652.497375,266.034637 
	C644.173462,265.409515 635.832275,265.016357 627.500244,264.496521 
	C611.666138,263.508606 595.844421,261.990479 579.996826,261.645020 
	C564.511353,261.307465 549.027161,260.494415 533.492004,261.355804 
	C519.259644,262.144989 505.233398,263.547150 491.492004,267.471985 
	C480.892273,270.499451 470.816650,274.453125 462.491150,281.990234 
	C459.881378,284.352875 457.239929,284.207855 454.487640,282.015503 
	C440.451599,270.835052 423.881287,266.805573 406.517700,264.373566 
	C391.037537,262.205383 375.534119,261.715027 360.003326,262.125671 
	C351.165985,262.359283 342.309753,261.987183 333.505737,262.584381 
	C321.343353,263.409302 309.180756,264.046143 297.007812,264.655945 
	C286.342133,265.190216 275.711456,266.507202 265.000031,266.518280 
	C259.669678,266.523773 258.622437,267.670044 258.495972,272.999908 
	C258.407684,276.720337 258.581909,280.360321 257.199890,284.074371 
	C256.423309,286.161377 257.955933,288.999786 257.957855,291.500031 
	C258.010498,360.333344 258.150391,429.167297 257.860779,497.999420 
	C257.808929,510.325195 257.231354,522.683472 257.617828,534.996277 
	C258.203949,553.669312 257.744995,572.334229 258.009583,590.999878 
	C258.092102,596.820496 258.817688,597.569885 264.499786,597.486023 
	C284.666992,597.188538 304.840881,596.346924 324.997528,596.659241 
	C340.161133,596.894104 355.358673,596.931152 370.490723,597.686096 
	C388.674072,598.593262 406.896484,600.074158 424.513733,605.455078 
	C430.207520,607.194153 435.703918,609.317444 440.999207,612.001587 
	C447.334839,615.213074 453.826477,618.064758 461.481781,620.013550 
	C471.155853,614.456848 481.421234,607.779053 493.465210,604.376892 
	C504.004761,601.399719 514.649902,599.645630 525.493408,598.440796 
	C553.606689,595.316956 581.816772,595.855225 609.998657,596.136475 
	C623.497131,596.271179 637.000244,596.318665 650.499756,596.515381 
	C652.902710,596.550415 655.249390,596.412354 657.500000,595.500000 
"/>
<path fill="none" opacity="1.000000" stroke="#000000" stroke-linecap="round" stroke-linejoin="round" stroke-width="13.000000"
	d="
M458.500000,284.500000 
	C459.628479,395.998566 458.694366,507.500214 459.000000,619.000000 
"/>
<path fill="none" opacity="1.000000" stroke="#000000" stroke-linecap="round" stroke-linejoin="round" stroke-width="13.000000"
	d="
M256.000000,285.000000 
	C250.483200,285.424988 244.744370,283.756378 239.609283,286.693451 
	C238.766205,288.957977 239.215408,291.259888 238.969315,293.496613 
	C237.996536,302.338196 238.906372,311.166138 238.983521,320.000153 
	C239.059204,328.666138 239.000000,337.333344 239.000000,346.000000 
	C239.000000,354.833344 239.000000,363.666656 239.000000,372.500000 
	C239.000000,457.000000 239.000000,541.500000 239.000000,626.000000 
	C239.000000,627.166687 238.822510,628.366699 239.034393,629.493530 
	C239.593857,632.468750 240.780334,634.557068 244.500061,634.552429 
	C304.333313,634.478271 364.166656,634.494812 424.000000,634.521484 
	C426.122223,634.522400 428.417206,634.468445 429.938049,633.177002 
	C434.567535,629.245911 439.114960,630.900879 444.031860,632.395142 
	C448.018188,633.606567 452.158569,634.473083 456.507507,634.083740 
	C460.289612,633.745178 461.829620,632.401123 461.058289,628.488525 
	C460.577667,626.050415 460.666656,623.500000 460.500000,621.000000 
"/>
<path fill="none" opacity="1.000000" stroke="#000000" stroke-linecap="round" stroke-linejoin="round" stroke-width="12.000000"
	d="
M258.000000,599.000000 
	C254.233429,604.475891 255.939377,610.115112 257.570557,616.018005 
	C272.999908,615.650146 288.500519,616.589478 304.003235,615.548157 
	C308.648926,615.236145 313.333344,615.500000 318.000000,615.500000 
	C331.500000,615.500000 345.009460,615.179504 358.497711,615.577515 
	C377.207245,616.129639 395.963226,616.591553 414.485016,619.592407 
	C422.136200,620.831970 430.106293,622.170593 434.500000,630.000000 
"/>
<path fill="none" opacity="1.000000" stroke="#000000" stroke-linecap="round" stroke-linejoin="round" stroke-width="12.000000"
	d="
M661.000000,615.500000 
	C642.500000,615.500000 624.000000,615.500000 605.500000,615.500000 
	C581.000000,615.500000 556.497009,615.269226 532.001160,615.589111 
	C517.969849,615.772278 504.080658,617.595703 490.474426,621.408813 
	C485.765503,622.728394 482.385284,625.023315 480.500000,629.500000 
"/>
<path fill="none" opacity="1.000000" stroke="#000000" stroke-linecap="round" stroke-linejoin="round" stroke-width="12.000000"
	d="
M407.000000,356.750000 
	C392.666656,356.666656 378.333435,356.545593 363.999969,356.509857 
	C347.166748,356.467865 330.333344,356.508881 313.500000,356.494812 
	C308.156677,356.490356 302.797852,356.756836 297.500000,355.750000 
"/>
<path fill="none" opacity="1.000000" stroke="#000000" stroke-linecap="round" stroke-linejoin="round" stroke-width="12.000000"
	d="
M406.000000,381.000000 
	C396.000000,381.000000 385.999725,381.048340 376.000061,380.990326 
	C352.499878,380.853882 328.999329,380.719666 305.500916,380.427490 
	C302.807220,380.393982 300.196533,381.622620 297.500000,380.750000 
"/>
<path fill="none" opacity="1.000000" stroke="#000000" stroke-linecap="round" stroke-linejoin="round" stroke-width="12.000000"
	d="
M405.500000,405.500000 
	C375.333344,405.500000 345.166565,405.539062 315.000092,405.466095 
	C309.166168,405.451996 303.333344,405.000000 297.500000,404.750000 
"/>
<path fill="none" opacity="1.000000" stroke="#000000" stroke-linecap="round" stroke-linejoin="round" stroke-width="12.000000"
	d="
M512.000000,324.750000 
	C547.833313,325.000000 583.666687,325.250000 619.500000,325.500000 
"/>
<path fill="none" opacity="1.000000" stroke="#000000" stroke-linecap="round" stroke-linejoin="round" stroke-width="12.000000"
	d="
M406.000000,332.250000 
	C383.166656,332.333344 360.301056,333.174652 337.512573,332.204407 
	C324.657593,331.657074 311.827209,332.068542 299.000000,331.500000 
"/>
<path fill="none" opacity="1.000000" stroke="#000000" stroke-linecap="round" stroke-linejoin="round" stroke-width="12.000000"
	d="
M406.000000,430.000000 
	C404.228180,429.156647 402.338684,429.514893 400.500000,429.513855 
	C366.666656,429.494934 332.833344,429.500000 299.000000,429.500000 
"/>
<path fill="none" opacity="1.000000" stroke="#000000" stroke-linecap="round" stroke-linejoin="round" stroke-width="12.000000"
	d="
M617.000000,397.500000 
	C595.333313,397.500000 573.666626,397.473053 552.000000,397.511719 
	C541.653015,397.530151 531.323242,397.242828 520.996643,396.550110 
	C517.517883,396.316772 514.000000,396.666656 510.500000,396.750000 
"/>
<path fill="none" opacity="1.000000" stroke="#000000" stroke-linecap="round" stroke-linejoin="round" stroke-width="12.000000"
	d="
M617.000000,421.500000 
	C594.500000,421.500000 571.996643,421.272797 549.501526,421.603516 
	C539.456055,421.751190 529.525024,420.275970 519.498840,420.416626 
	C516.490295,420.458862 513.526611,421.623901 510.500000,420.750000 
"/>
<path fill="none" opacity="1.000000" stroke="#000000" stroke-linecap="round" stroke-linejoin="round" stroke-width="12.000000"
	d="
M618.500000,348.750000 
	C603.840393,350.071777 589.177490,349.548981 574.498169,349.055206 
	C561.673706,348.623840 548.833618,348.629822 535.999878,348.513458 
	C528.000549,348.440918 520.000000,348.500000 512.000000,348.500000 
"/>
<path fill="none" opacity="1.000000" stroke="#000000" stroke-linecap="round" stroke-linejoin="round" stroke-width="11.000000"
	d="
M512.000000,372.500000 
	C514.000000,373.924866 515.992004,372.384033 518.001221,372.412048 
	C539.999268,372.718994 562.004211,372.630249 583.998291,373.083099 
	C595.513733,373.320221 607.008545,374.011536 618.500000,372.750000 
"/>
</svg>